<svg width="88" height="88" viewBox="0 0 88 88" fill="none" xmlns="http://www.w3.org/2000/svg">
<path fill-rule="evenodd" clip-rule="evenodd" d="M44 86C67.196 86 86 67.196 86 44C86 20.804 67.196 2 44 2C20.804 2 2 20.804 2 44C2 67.196 20.804 86 44 86Z" fill="white" stroke="#FFC985" stroke-width="4"/>
<path fill-rule="evenodd" clip-rule="evenodd" d="M41 70.5316C41 68.616 42.5844 67.0631 44.5 67.0631C46.4156 67.0631 48 68.616 48 70.5316C48 72.4471 46.4156 74 44.5 74C42.5844 74 41 72.4471 41 70.5316Z" fill="#FFC985"/>
<path fill-rule="evenodd" clip-rule="evenodd" d="M42.0579 16C42.0579 14.8954 42.9533 14 44.0579 14H45.0579C46.1624 14 47.0579 14.8954 47.0579 16V58.7519C47.0579 59.8565 46.1624 60.7519 45.0579 60.7519H44.0579C42.9533 60.7519 42.0579 59.8565 42.0579 58.7519V16Z" fill="#FFC985"/>
</svg>
